# xmcd CD database file
# Copyright (C) 2003 Ti Kan
# 
# Track frame offsets:
#     150
#     17714
#     34486
#     50807
#     65275
#     80758
#     97078
#     114849
#     127783
#     143436
#     159942
#     175358
# 
# Disc length: 2634 seconds
# 
# Revision: 1
# Processed by: cddbd v1.4PL0 Copyright (c) Steve Scherf et al.
# Submitted via: DiscPlay 4.0.4
# 
DISCID=9a0a480c
DTITLE=Dixie Chicks - Wide open spaces
DYEAR=1900
DGENRE=
TTITLE0=I can love you better
TTITLE1=Wide open spaces
TTITLE2=Loving arms
TTITLE3=There`s your trouble
TTITLE4=You were mine
TTITLE5=Never say die
TTITLE6=Tonight the heartache`s on me
TTITLE7=Let  r rip
TTITLE8=Once you`ve loved somebody
TTITLE9=I`ll take care of you
TTITLE10=Am i the only one (Who`s ever felt this way)
TTITLE11=Give it up or let me go
EXTD=
EXTT0=
EXTT1=
EXTT2=
EXTT3=
EXTT4=
EXTT5=
EXTT6=
EXTT7=
EXTT8=
EXTT9=
EXTT10=
EXTT11=
PLAYORDER=
